<svg width="432" height="374" viewBox="0 0 432 374" fill="none" xmlns="http://www.w3.org/2000/svg">
<g clip-path="url(#clip0)">
<path d="M53.97 79.2001C124.04 -0.52993 244.34 -13.8099 297.98 11.8101C320.39 22.5201 339.35 35.6301 355.19 50.0401C357.43 52.0701 359.61 54.1301 361.72 56.2101C368.52 62.9101 374.68 69.8301 380.25 76.8801C387.39 85.9101 393.55 95.1501 398.79 104.38C407.23 119.22 413.31 134.02 417.32 147.85C420.49 158.77 422.37 169.09 423.1 178.36C424.63 197.77 423.3 217.32 420.69 236.61C420.45 238.45 420.19 240.29 419.91 242.13C419.84 242.64 419.77 243.15 419.69 243.66C416.82 262.83 412.76 282.17 403.7 298.89C393.82 317.12 359.27 367.85 321.82 369.18C302.39 369.87 285.23 357.15 267.62 348.17C239.6 333.89 207.93 331.09 177.03 330.26C146.13 329.43 114.85 330.32 84.74 322.66C54.63 315.01 25.1 297.4 9.71001 268.11C4.48001 258.17 0.510014 243.85 0.500014 232.39C0.490014 198.58 6.02001 169.01 15.66 143.32C18.8 134.93 22.38 126.96 26.35 119.39C32.46 107.72 39.5 97.0101 47.27 87.2201L53.97 79.2001Z" fill="#FA976D"/>
<g opacity="0.7">
<path opacity="0.7" d="M53.97 79.2001C124.04 -0.52993 244.34 -13.8099 297.98 11.8101C320.39 22.5201 339.35 35.6301 355.19 50.0401C357.43 52.0701 359.61 54.1301 361.72 56.2101C368.52 62.9101 374.68 69.8301 380.25 76.8801C387.39 85.9101 393.55 95.1501 398.79 104.38C407.23 119.22 413.31 134.02 417.32 147.85C420.49 158.77 422.37 169.09 423.1 178.36C424.63 197.77 423.3 217.32 420.69 236.61C420.45 238.45 420.19 240.29 419.91 242.13C419.84 242.64 419.77 243.15 419.69 243.66C416.82 262.83 412.76 282.17 403.7 298.89C393.82 317.12 359.27 367.85 321.82 369.18C302.39 369.87 285.23 357.15 267.62 348.17C239.6 333.89 207.93 331.09 177.03 330.26C146.13 329.43 114.85 330.32 84.74 322.66C54.63 315.01 25.1 297.4 9.71001 268.11C4.48001 258.17 0.510014 243.85 0.500014 232.39C0.490014 198.58 6.02001 169.01 15.66 143.32C18.8 134.93 22.38 126.96 26.35 119.39C32.46 107.72 39.5 97.0101 47.27 87.2201L53.97 79.2001Z" fill="white"/>
</g>
<path d="M0.5 368H430.55" stroke="#4B1D0A" stroke-miterlimit="10" stroke-linecap="round" stroke-linejoin="round"/>
<path d="M331.46 222.93C331.45 222.94 331.45 222.95 331.46 222.96C331.47 223 331.48 223.03 331.49 223.07C331.53 223.25 331.56 223.44 331.61 223.64C331.95 225.25 332.34 227.47 332.62 230.27C332.81 232.18 332.96 234.36 333 236.79C333.09 241.48 332.83 247.1 331.85 253.53C331.63 255 331.37 256.51 331.06 258.07C330.57 260.61 329.96 263.27 329.23 266.02C328.89 267.3 328.52 268.6 328.12 269.93C327.96 270.47 327.8 271 327.65 271.54C327.47 272.19 327.29 272.85 327.11 273.5C327.11 273.51 327.1 273.52 327.1 273.53C325.94 277.96 325.04 282.5 324.35 287.01C323.5 292.66 322.97 298.27 322.68 303.58C322.29 310.65 322.31 317.19 322.48 322.6C322.48 322.69 322.48 322.77 322.49 322.86C322.67 328.34 323.01 332.62 323.24 335.07C323.37 336.49 323.46 337.3 323.47 337.36" stroke="#4B1D0A" stroke-miterlimit="10" stroke-linecap="round" stroke-linejoin="round"/>
<path d="M331.49 223.07C331.48 223.05 331.48 223.05 331.47 223.05C331.46 223.03 331.46 223.03 331.45 223.03C330.73 222.4 329.94 221.85 329.11 221.4C328.19 220.92 327.21 220.54 326.2 220.3" fill="white"/>
<path d="M331.49 223.07C331.48 223.05 331.48 223.05 331.47 223.05C331.46 223.03 331.46 223.03 331.45 223.03C330.73 222.4 329.94 221.85 329.11 221.4C328.19 220.92 327.21 220.54 326.2 220.3" stroke="#4B1D0A" stroke-miterlimit="10" stroke-linecap="round" stroke-linejoin="round"/>
<path d="M332.61 230.27L335.27 227.86" stroke="#4B1D0A" stroke-miterlimit="10" stroke-linecap="round" stroke-linejoin="round"/>
<path d="M329.22 266.04C329.08 265.33 328.88 264.64 328.59 263.98C328.2 263.01 327.66 262.1 327 261.29C326.51 260.68 325.95 260.13 325.33 259.64" stroke="#4B1D0A" stroke-miterlimit="10" stroke-linecap="round" stroke-linejoin="round"/>
<path d="M327.09 273.54C327.82 271.68 329.38 270.14 331.25 269.43" stroke="#4B1D0A" stroke-miterlimit="10" stroke-linecap="round" stroke-linejoin="round"/>
<path d="M322.47 310.74C323.36 309.67 324.03 305.58 324.4 303.38C324.49 302.85 324.56 302.41 324.62 302.08" fill="white"/>
<path d="M322.47 310.74C323.36 309.67 324.03 305.58 324.4 303.38C324.49 302.85 324.56 302.41 324.62 302.08" stroke="#4B1D0A" stroke-miterlimit="10" stroke-linecap="round" stroke-linejoin="round"/>
<path d="M315.61 318.12C315.91 318.1 316.21 318.11 316.51 318.15C319.1 318.39 321.53 320.17 322.48 322.6" fill="white"/>
<path d="M315.61 318.12C315.91 318.1 316.21 318.11 316.51 318.15C319.1 318.39 321.53 320.17 322.48 322.6" stroke="#4B1D0A" stroke-miterlimit="10" stroke-linecap="round" stroke-linejoin="round"/>
<path d="M331.05 258.12C331.05 258.12 331.52 241.89 322.61 236" stroke="#4B1D0A" stroke-miterlimit="10" stroke-linecap="round" stroke-linejoin="round"/>
<path d="M331.85 292.95C333.02 296.73 324.86 303.94 324.86 303.94C324.86 303.94 314.06 302.59 312.89 298.81C311.72 295.03 314.46 288.83 319.69 287.22C324.93 285.6 330.68 289.17 331.85 292.95Z" fill="#FA976D"/>
<path d="M340.9 247.02C339.87 251.04 332.14 253.89 332.14 253.89C332.14 253.89 326.76 247.66 327.79 243.64C328.82 239.62 333.09 235.19 336.71 236.12C340.33 237.06 341.93 243 340.9 247.02Z" fill="#FA976D"/>
<path d="M309.91 307.09C314.76 308.98 317.73 317.56 317.73 317.56C317.73 317.56 309.74 321.87 304.89 319.98C300.04 318.09 294.91 312.77 296.29 309.21C297.68 305.65 305.06 305.2 309.91 307.09Z" fill="#FA976D"/>
<path d="M320.54 259.9C321.57 260.66 322.62 261.44 323.85 261.77C325.08 262.1 326.55 261.9 327.38 260.94C328.42 259.75 328.14 257.89 327.49 256.45C326.19 253.59 321.42 248.75 317.74 250.14C312.45 252.14 318.18 258.14 320.54 259.9Z" fill="#FA976D"/>
<path d="M331.39 267.17C330.69 268.03 329.96 269.12 330.34 270.16C330.68 271.08 331.81 271.51 332.78 271.36C333.75 271.21 334.6 270.64 335.4 270.08C337.27 268.78 341.11 266.06 338.66 263.51C336.11 260.85 332.85 265.36 331.39 267.17Z" fill="#FA976D"/>
<path d="M315.73 230.89C314.93 230.98 314.12 231.51 313.98 232.31C313.82 233.24 314.59 234.05 315.34 234.62C317.2 236.05 322.78 239.92 324.03 236.19C325.21 232.67 318.2 230.62 315.73 230.89Z" fill="#FA976D"/>
<path d="M326.03 218.63C324.88 218.74 323.73 218.32 322.57 218.39C321.42 218.46 320.13 219.39 320.39 220.52C320.63 221.56 321.92 221.91 322.99 221.98C324.81 222.09 326.65 221.97 328.44 221.6C328.86 221.52 329.31 221.39 329.54 221.04C330.01 220.35 329.26 219.43 328.47 219.19C327.68 218.95 326.78 219.03 326.06 218.62L326.03 218.63Z" fill="#FA976D"/>
<path d="M337.28 226.56C338.44 226.59 339.56 226.1 340.71 226.1C341.87 226.1 343.21 226.94 343.03 228.08C342.86 229.14 341.59 229.57 340.53 229.71C338.72 229.94 336.88 229.94 335.07 229.69C334.65 229.63 334.19 229.54 333.93 229.21C333.42 228.55 334.1 227.59 334.88 227.29C335.66 226.99 336.56 227.02 337.25 226.56H337.28Z" fill="#FA976D"/>
<path d="M336.14 311.78C336.43 311.54 336.75 311.29 337.12 311.29C337.62 311.29 338.01 311.76 338.1 312.25C338.19 312.74 338.06 313.24 337.91 313.71C337.13 316.33 328.32 335.33 326.3 331.92C325.1 329.9 328.05 323.22 328.91 321.33C330.6 317.68 333.07 314.38 336.14 311.78Z" fill="#FA976D"/>
<path d="M331.86 224.18C331.86 224.18 331.33 219.57 332.44 219.2" stroke="#4B1D0A" stroke-miterlimit="10" stroke-linecap="round" stroke-linejoin="round"/>
<path d="M330.88 219.35C331.58 217.78 332.33 216.14 333.72 215.13C335.11 214.12 337.33 214.04 338.34 215.43C339.47 216.98 338.34 219.34 336.61 220.17C334.88 221 332.85 220.75 330.95 220.48C330.93 220.2 330.92 219.92 330.9 219.63L330.88 219.35Z" fill="#FA976D"/>
<path d="M335.62 367.77C326.26 369.37 316.5 369.37 307.14 367.77L296.06 335.08H346.7L335.62 367.77Z" fill="white" stroke="#4B1D0A" stroke-miterlimit="10" stroke-linecap="round" stroke-linejoin="round"/>
<path d="M142.35 131.59C142.34 131.6 142.34 131.61 142.35 131.62C142.36 131.66 142.37 131.69 142.38 131.73C142.42 131.91 142.45 132.1 142.5 132.3C142.84 133.91 143.23 136.13 143.51 138.93C143.7 140.84 143.85 143.02 143.89 145.45C143.98 150.14 143.72 155.76 142.74 162.19C142.52 163.66 142.26 165.17 141.95 166.73C141.46 169.27 140.85 171.93 140.12 174.68C139.78 175.96 139.41 177.26 139.01 178.59C138.85 179.13 138.69 179.66 138.54 180.2C138.36 180.85 138.18 181.51 138 182.16C138 182.17 137.99 182.18 137.99 182.19C136.83 186.62 135.93 191.16 135.24 195.67C134.39 201.32 133.86 206.93 133.57 212.24C133.18 219.31 133.2 225.85 133.37 231.26C133.37 231.35 133.37 231.43 133.38 231.52C133.56 237 133.9 241.28 134.13 243.73C134.26 245.15 134.35 245.96 134.36 246.02" stroke="#4B1D0A" stroke-miterlimit="10" stroke-linecap="round" stroke-linejoin="round"/>
<path d="M142.38 131.73C142.37 131.71 142.37 131.71 142.36 131.71C142.35 131.69 142.35 131.69 142.34 131.69C141.62 131.06 140.83 130.51 140 130.06C139.08 129.58 138.1 129.2 137.09 128.96" fill="white"/>
<path d="M142.38 131.73C142.37 131.71 142.37 131.71 142.36 131.71C142.35 131.69 142.35 131.69 142.34 131.69C141.62 131.06 140.83 130.51 140 130.06C139.08 129.58 138.1 129.2 137.09 128.96" stroke="#4B1D0A" stroke-miterlimit="10" stroke-linecap="round" stroke-linejoin="round"/>
<path d="M143.5 138.93L146.16 136.52" stroke="#4B1D0A" stroke-miterlimit="10" stroke-linecap="round" stroke-linejoin="round"/>
<path d="M140.11 174.7C139.97 173.99 139.77 173.3 139.48 172.64C139.09 171.67 138.55 170.76 137.89 169.95C137.4 169.34 136.84 168.79 136.22 168.3" stroke="#4B1D0A" stroke-miterlimit="10" stroke-linecap="round" stroke-linejoin="round"/>
<path d="M137.99 182.2C138.72 180.34 140.28 178.8 142.15 178.09" stroke="#4B1D0A" stroke-miterlimit="10" stroke-linecap="round" stroke-linejoin="round"/>
<path d="M133.36 219.4C134.25 218.33 134.92 214.24 135.29 212.04C135.38 211.51 135.45 211.07 135.51 210.74" fill="white"/>
<path d="M133.36 219.4C134.25 218.33 134.92 214.24 135.29 212.04C135.38 211.51 135.45 211.07 135.51 210.74" stroke="#4B1D0A" stroke-miterlimit="10" stroke-linecap="round" stroke-linejoin="round"/>
<path d="M126.51 226.78C126.81 226.76 127.11 226.77 127.41 226.81C130 227.05 132.43 228.83 133.38 231.26" fill="white"/>
<path d="M126.51 226.78C126.81 226.76 127.11 226.77 127.41 226.81C130 227.05 132.43 228.83 133.38 231.26" stroke="#4B1D0A" stroke-miterlimit="10" stroke-linecap="round" stroke-linejoin="round"/>
<path d="M141.94 166.78C141.94 166.78 142.41 150.55 133.5 144.67" stroke="#4B1D0A" stroke-miterlimit="10" stroke-linecap="round" stroke-linejoin="round"/>
<path d="M142.74 201.61C143.91 205.39 135.75 212.6 135.75 212.6C135.75 212.6 124.95 211.25 123.78 207.47C122.61 203.69 125.35 197.49 130.58 195.88C135.82 194.26 141.57 197.83 142.74 201.61Z" fill="#FA976D"/>
<path d="M151.79 155.68C150.76 159.7 143.03 162.55 143.03 162.55C143.03 162.55 137.64 156.32 138.68 152.3C139.71 148.28 143.98 143.85 147.6 144.78C151.23 145.72 152.83 151.66 151.79 155.68Z" fill="#FA976D"/>
<path d="M120.8 215.75C125.65 217.64 128.62 226.22 128.62 226.22C128.62 226.22 120.63 230.53 115.78 228.64C110.93 226.75 105.8 221.43 107.18 217.87C108.57 214.31 115.95 213.86 120.8 215.75Z" fill="#FA976D"/>
<path d="M131.43 168.56C132.46 169.32 133.51 170.1 134.74 170.43C135.97 170.76 137.44 170.56 138.27 169.6C139.31 168.41 139.03 166.55 138.38 165.11C137.08 162.25 132.31 157.41 128.63 158.8C123.34 160.8 129.07 166.8 131.43 168.56Z" fill="#FA976D"/>
<path d="M142.28 175.83C141.58 176.69 140.85 177.78 141.23 178.82C141.57 179.74 142.7 180.17 143.67 180.02C144.64 179.87 145.49 179.3 146.29 178.74C148.16 177.44 152 174.72 149.55 172.17C147 169.51 143.74 174.02 142.28 175.83Z" fill="#FA976D"/>
<path d="M126.63 139.55C125.83 139.64 125.02 140.17 124.88 140.97C124.72 141.9 125.49 142.71 126.24 143.28C128.1 144.71 133.68 148.58 134.93 144.85C136.1 141.33 129.1 139.28 126.63 139.55Z" fill="#FA976D"/>
<path d="M136.92 127.29C135.77 127.4 134.62 126.98 133.46 127.05C132.31 127.12 131.02 128.05 131.28 129.18C131.52 130.22 132.81 130.57 133.88 130.64C135.7 130.75 137.54 130.63 139.33 130.26C139.75 130.18 140.2 130.05 140.43 129.7C140.9 129.01 140.15 128.09 139.36 127.85C138.57 127.61 137.67 127.69 136.95 127.28L136.92 127.29Z" fill="#FA976D"/>
<path d="M148.18 135.22C149.34 135.25 150.46 134.76 151.61 134.76C152.77 134.76 154.11 135.6 153.93 136.74C153.76 137.8 152.49 138.23 151.43 138.37C149.62 138.6 147.78 138.6 145.97 138.35C145.55 138.29 145.09 138.2 144.83 137.87C144.32 137.21 145 136.25 145.78 135.95C146.56 135.65 147.46 135.68 148.15 135.22H148.18Z" fill="#FA976D"/>
<path d="M147.04 220.44C147.33 220.2 147.65 219.95 148.02 219.95C148.52 219.95 148.91 220.42 149 220.91C149.09 221.4 148.96 221.9 148.81 222.37C148.03 224.99 139.22 243.99 137.2 240.58C136 238.56 138.95 231.88 139.81 229.99C141.5 226.34 143.96 223.04 147.04 220.44Z" fill="#FA976D"/>
<path d="M142.75 132.84C142.75 132.84 142.22 128.23 143.33 127.86" stroke="#4B1D0A" stroke-miterlimit="10" stroke-linecap="round" stroke-linejoin="round"/>
<path d="M141.77 128.01C142.47 126.44 143.22 124.8 144.61 123.79C146 122.78 148.22 122.7 149.23 124.09C150.36 125.64 149.23 128 147.5 128.83C145.77 129.66 143.74 129.41 141.84 129.14C141.82 128.86 141.81 128.58 141.79 128.29L141.77 128.01Z" fill="#FA976D"/>
<path d="M15.66 242.13V143.32" stroke="#4B1D0A" stroke-miterlimit="10" stroke-linecap="round" stroke-linejoin="round"/>
<path d="M324.16 242.13H311.94" stroke="#4B1D0A" stroke-miterlimit="10" stroke-linecap="round" stroke-linejoin="round"/>
<path d="M419.91 242.13H395.04" stroke="#4B1D0A" stroke-miterlimit="10" stroke-linecap="round" stroke-linejoin="round"/>
<path d="M310.83 92.02H354.9V50.04" stroke="#4B1D0A" stroke-miterlimit="10" stroke-linecap="round" stroke-linejoin="round"/>
<path d="M53.97 79.2H100.79V113.35H152.1" stroke="#4B1D0A" stroke-miterlimit="10" stroke-linecap="round" stroke-linejoin="round"/>
<path d="M26.35 194.85V119.39" stroke="#4B1D0A" stroke-miterlimit="10" stroke-linecap="round" stroke-linejoin="round"/>
<path d="M47.26 86.6401V145.78" stroke="#4B1D0A" stroke-miterlimit="10" stroke-linecap="round" stroke-linejoin="round"/>
<path d="M68.17 86.6401V138.92" stroke="#4B1D0A" stroke-miterlimit="10" stroke-linecap="round" stroke-linejoin="round"/>
<path d="M89.08 86.6401V178.09" stroke="#4B1D0A" stroke-miterlimit="10" stroke-linecap="round" stroke-linejoin="round"/>
<path d="M189.26 73.67V13.54H274.39V73.67" stroke="#4B1D0A" stroke-miterlimit="10" stroke-linecap="round" stroke-linejoin="round"/>
<path d="M195.5 43.4099V20.6799H211.23" stroke="#4B1D0A" stroke-miterlimit="10" stroke-linecap="round" stroke-linejoin="round"/>
<path d="M214.7 43.4099V20.6799H230.43" stroke="#4B1D0A" stroke-miterlimit="10" stroke-linecap="round" stroke-linejoin="round"/>
<path d="M233.9 43.4099V20.6799H249.63" stroke="#4B1D0A" stroke-miterlimit="10" stroke-linecap="round" stroke-linejoin="round"/>
<path d="M253.1 43.4099V20.6799H268.83" stroke="#4B1D0A" stroke-miterlimit="10" stroke-linecap="round" stroke-linejoin="round"/>
<path d="M195.5 73.6699V50.9399H211.23" stroke="#4B1D0A" stroke-miterlimit="10" stroke-linecap="round" stroke-linejoin="round"/>
<path d="M214.7 73.6699V50.9399H230.43" stroke="#4B1D0A" stroke-miterlimit="10" stroke-linecap="round" stroke-linejoin="round"/>
<path d="M233.9 73.6699V50.9399H249.63" stroke="#4B1D0A" stroke-miterlimit="10" stroke-linecap="round" stroke-linejoin="round"/>
<path d="M253.1 73.6699V50.9399H268.83" stroke="#4B1D0A" stroke-miterlimit="10" stroke-linecap="round" stroke-linejoin="round"/>
<path d="M361.71 55.24V130.59" stroke="#4B1D0A" stroke-miterlimit="10" stroke-linecap="round" stroke-linejoin="round"/>
<path d="M392.63 236.61H395.04" stroke="#4B1D0A" stroke-miterlimit="10" stroke-linecap="round" stroke-linejoin="round"/>
<path d="M380.25 76.8801V161.24" stroke="#4B1D0A" stroke-miterlimit="10" stroke-linecap="round" stroke-linejoin="round"/>
<path d="M398.79 215.07V236.61H413.58" stroke="#4B1D0A" stroke-miterlimit="10" stroke-linecap="round" stroke-linejoin="round"/>
<path d="M398.79 104.38V161.67" stroke="#4B1D0A" stroke-miterlimit="10" stroke-linecap="round" stroke-linejoin="round"/>
<path d="M417.32 147.85V236.61H420.69" stroke="#4B1D0A" stroke-miterlimit="10" stroke-linecap="round" stroke-linejoin="round"/>
<path d="M191.5 243.94H0.5V368H191.5V243.94Z" fill="white" stroke="#4B1D0A" stroke-miterlimit="10" stroke-linecap="round" stroke-linejoin="round"/>
<path d="M0.5 243.94L96 305.97L191.5 243.94H0.5Z" fill="white" stroke="#4B1D0A" stroke-miterlimit="10" stroke-linecap="round" stroke-linejoin="round"/>
<path d="M67.29 287.33L0.5 368" stroke="#4B1D0A" stroke-miterlimit="10" stroke-linecap="round" stroke-linejoin="round"/>
<path d="M125.23 287.33L192.02 368" stroke="#4B1D0A" stroke-miterlimit="10" stroke-linecap="round" stroke-linejoin="round"/>
<path d="M293.71 85.64H249.31C246.7 85.64 244.3 87.06 243.05 89.35L243.03 89.39C239.65 95.48 231.97 97.68 225.88 94.3C223.82 93.16 222.12 91.45 220.97 89.39C219.72 87.08 217.31 85.64 214.68 85.64H170.35C165.23 85.58 161.03 89.67 160.96 94.79V345.2C161.03 350.32 165.23 354.42 170.35 354.35H293.71C298.83 354.41 303.04 350.32 303.11 345.2V94.79C303.04 89.67 298.83 85.57 293.71 85.64Z" fill="#FA976D"/>
<path d="M307.44 92.02C307.44 84.94 301.7 79.21 294.63 79.21C294.63 79.21 294.63 79.21 294.62 79.21H169.44C162.36 79.21 156.62 84.94 156.62 92.02C156.62 92.02 156.62 92.02 156.62 92.03V355.2C156.62 362.28 162.36 368.01 169.43 368.01C169.43 368.01 169.43 368.01 169.44 368.01H294.61C301.69 368.01 307.43 362.28 307.43 355.2C307.43 355.2 307.43 355.2 307.43 355.19V92.02H307.44ZM303.11 345.2C303.04 350.32 298.83 354.42 293.71 354.35H170.35C165.23 354.41 161.03 350.32 160.96 345.2V94.79C161.03 89.67 165.23 85.57 170.35 85.64H214.71C217.34 85.64 219.75 87.08 221 89.39C224.38 95.48 232.06 97.68 238.15 94.3C240.21 93.16 241.91 91.45 243.06 89.39L243.08 89.35C244.33 87.06 246.73 85.64 249.34 85.64H293.74C298.86 85.58 303.07 89.67 303.14 94.79L303.11 345.2Z" fill="#4B1D0A"/>
<path opacity="0.2" d="M264.9 79.2L181.76 368L214.77 367.96L294.85 79.2H264.9Z" fill="white"/>
<path opacity="0.2" d="M252.5 79.2L164.6 368L169.41 367.97L255.67 79.2H252.5Z" fill="white"/>
<path d="M254.46 293.89C254.67 305.99 245.03 315.8 232.93 315.8C220.83 315.8 210.84 305.99 210.63 293.89C210.42 281.79 220.06 271.98 232.16 271.98C244.26 271.98 254.24 281.79 254.46 293.89Z" fill="white" stroke="#4B1D0A" stroke-miterlimit="10" stroke-linecap="round" stroke-linejoin="round"/>
<path d="M225.36 310.25C223.32 309.5 221.46 308.35 219.87 306.87C218.27 305.33 217.03 303.46 216.24 301.38C215.34 299.05 214.9 296.58 214.93 294.08C214.91 291.95 215.29 289.84 216.04 287.84C216.72 286.01 217.73 284.33 219.03 282.87C221.6 280.05 224.92 278.03 228.6 277.04C230.41 276.56 232.27 276.31 234.14 276.31C235.69 276.3 237.24 276.49 238.74 276.86C240.2 277.22 241.59 277.8 242.87 278.57C244.14 279.33 245.28 280.3 246.24 281.43C247.25 282.64 248.01 284.03 248.5 285.53C249.06 287.23 249.34 289.02 249.32 290.82C249.3 294.27 248.06 297.61 245.83 300.24C244.86 301.34 243.71 302.28 242.43 302.99C241.33 303.63 240.08 303.98 238.81 304C237.94 304.01 237.08 303.74 236.38 303.22C235.66 302.69 235.23 301.85 235.23 300.96C233.74 303.06 231.72 304.11 229.18 304.11C227.11 304.11 225.45 303.4 224.21 301.99C222.97 300.57 222.35 298.83 222.36 296.76C222.37 295.19 222.64 293.63 223.17 292.14C223.69 290.64 224.43 289.23 225.38 287.96C226.32 286.7 227.51 285.66 228.88 284.91C230.25 284.14 231.8 283.73 233.37 283.73C234.46 283.72 235.54 283.98 236.51 284.5C237.45 285 238.21 285.78 238.69 286.73L238.89 286.07C239.22 285.09 240.27 284.57 241.25 284.89C241.43 284.95 241.61 285.04 241.76 285.16C242.07 285.41 242.24 285.79 242.21 286.19C242.21 286.38 242.18 286.56 242.12 286.74L238.88 297.52C238.51 298.75 238.33 299.6 238.33 300.06C238.33 300.84 238.73 301.22 239.52 301.22C240.55 301.22 241.57 300.74 242.57 299.79C243.65 298.72 244.48 297.42 245 296C245.62 294.44 245.94 292.78 245.94 291.1C245.96 289.62 245.74 288.15 245.3 286.74C244.94 285.52 244.35 284.38 243.58 283.37C242.85 282.45 241.96 281.66 240.97 281.04C239.97 280.41 238.89 279.94 237.75 279.65C236.58 279.35 235.38 279.19 234.17 279.19C232.64 279.19 231.11 279.41 229.64 279.83C228.13 280.26 226.68 280.91 225.36 281.76C224.02 282.6 222.81 283.64 221.76 284.82C220.68 286.07 219.83 287.5 219.27 289.06C218.64 290.75 218.33 292.54 218.34 294.35C218.31 296.49 218.69 298.61 219.48 300.6C220.15 302.32 221.22 303.87 222.6 305.1C223.93 306.26 225.46 307.15 227.12 307.74C228.87 308.36 230.71 308.67 232.57 308.65C234.55 308.65 236.53 308.35 238.42 307.76C238.61 307.7 238.81 307.66 239.01 307.67C239.4 307.65 239.77 307.81 240.04 308.09C240.29 308.35 240.43 308.7 240.43 309.06C240.48 309.66 240.08 310.21 239.49 310.34C237.13 311.06 234.67 311.44 232.2 311.46C229.87 311.48 227.55 311.07 225.36 310.25ZM233.62 299.88C234.61 299.17 235.34 298.16 235.71 297.01L237.8 289.66L237.66 289.36C237.53 289.12 237.37 288.89 237.18 288.69C236.93 288.4 236.66 288.14 236.37 287.89C236 287.59 235.57 287.36 235.12 287.21C233.94 286.79 232.64 286.84 231.49 287.34C230.86 287.61 230.29 287.98 229.79 288.45C229.27 288.94 228.8 289.48 228.41 290.07C228 290.68 227.65 291.34 227.36 292.02C227.08 292.7 226.86 293.41 226.71 294.13C226.56 294.82 226.48 295.52 226.48 296.22C226.48 296.67 226.5 297.12 226.56 297.57C226.61 297.97 226.7 298.36 226.82 298.74C226.93 299.08 227.09 299.41 227.29 299.71C227.47 299.99 227.71 300.23 227.97 300.43C228.26 300.64 228.58 300.79 228.92 300.89C229.32 301 229.74 301.06 230.15 301.05C231.4 301.04 232.62 300.64 233.62 299.88Z" fill="#FA976D" stroke="#4B1D0A" stroke-miterlimit="10" stroke-linecap="round" stroke-linejoin="round"/>
<path d="M253.96 218.76C254.17 230.86 244.53 240.67 232.43 240.67C220.33 240.67 210.34 230.86 210.13 218.76C209.92 206.66 219.56 196.85 231.66 196.85C243.77 196.85 253.75 206.66 253.96 218.76Z" fill="white" stroke="#4B1D0A" stroke-miterlimit="10" stroke-linecap="round" stroke-linejoin="round"/>
<path d="M245.8 216.76C238.94 212.26 225.47 212.26 218.92 216.76C216.48 217.22 214.68 219.37 214.78 221.95C214.88 224.86 226.97 224.86 226.87 221.95C226.83 220.7 226.33 219.55 225.56 218.65C229.89 217.67 234.92 217.67 239.32 218.65C238.61 219.56 238.19 220.7 238.24 221.95C238.34 224.86 250.43 224.86 250.33 221.95C250.22 219.37 248.27 217.22 245.8 216.76Z" fill="#FA976D" stroke="#4B1D0A" stroke-miterlimit="10" stroke-linecap="round" stroke-linejoin="round"/>
<path d="M253.97 145.78C254.09 151.17 251.15 155.99 246.43 159.2V172.29L237.04 162.9C235.56 163.16 234.02 163.29 232.44 163.29C220.34 163.29 210.35 155.46 210.14 145.78C209.93 136.11 219.56 128.28 231.67 128.28C243.77 128.28 253.75 136.12 253.97 145.78Z" fill="white" stroke="#4B1D0A" stroke-miterlimit="10" stroke-linecap="round" stroke-linejoin="round"/>
<path d="M222.72 145.78C222.72 147.35 221.45 148.62 219.88 148.62C218.31 148.62 217.04 147.35 217.04 145.78C217.04 144.21 218.31 142.94 219.88 142.94C221.45 142.95 222.72 144.22 222.72 145.78Z" fill="#FA976D" stroke="#4B1D0A" stroke-miterlimit="10" stroke-linecap="round" stroke-linejoin="round"/>
<path d="M234.87 145.78C234.87 147.35 233.6 148.62 232.03 148.62C230.46 148.62 229.19 147.35 229.19 145.78C229.19 144.21 230.46 142.94 232.03 142.94C233.6 142.95 234.87 144.22 234.87 145.78Z" fill="#FA976D" stroke="#4B1D0A" stroke-miterlimit="10" stroke-linecap="round" stroke-linejoin="round"/>
<path d="M247.01 145.78C247.01 147.35 245.74 148.62 244.17 148.62C242.6 148.62 241.33 147.35 241.33 145.78C241.33 144.21 242.6 142.94 244.17 142.94C245.74 142.95 247.01 144.22 247.01 145.78Z" fill="#FA976D" stroke="#4B1D0A" stroke-miterlimit="10" stroke-linecap="round" stroke-linejoin="round"/>
<path d="M109.61 185.69C109.31 186.37 108.7 186.86 108.12 187.33C103.51 191 98.78 194.53 93.95 197.92C92.18 199.17 90.34 200.44 88.63 201.84C78.35 208.72 84.62 210.4 78.35 224.96C78.35 224.97 78.34 224.97 78.34 224.97C76.86 228.45 77.13 245.51 77.13 245.51H76.62C75.49 244.46 73.94 242.96 72.75 242.18C72.75 242.18 72.74 242.19 72.74 242.18C72.54 242.04 72.34 241.93 72.16 241.84C72.16 241.84 72.15 241.85 72.15 241.84C71.93 241.73 71.72 241.66 71.56 241.65C70.55 241.59 66.75 242.05 62.89 241.79C62.56 241.77 62.23 241.75 61.89 241.71C61.33 241.65 60.77 241.58 60.22 241.49C59.68 241.39 59.15 241.28 58.64 241.14C55.75 240.34 51.73 238.64 47.9 237L47.89 236.99C47.3 236.74 46.72 236.49 46.15 236.24C45.86 236.11 45.57 235.99 45.29 235.87C45.02 235.75 44.76 235.64 44.5 235.53C44.31 235.45 44.12 235.37 43.94 235.29C43.76 235.21 43.57 235.14 43.4 235.06C43.39 235.06 43.39 235.06 43.39 235.07C42.49 234.69 41.64 234.34 40.86 234.04C40.49 233.9 40.13 233.79 39.77 233.71C39.71 234.53 39.64 235.36 39.53 236.18C39.04 240.09 37.97 243.7 36.07 244.2C36.03 244.22 35.99 244.23 35.94 244.23C35.77 244.26 35.6 244.28 35.44 244.28C35.38 244.29 35.33 244.29 35.29 244.28C34.88 244.27 34.47 244.19 34.05 244.04C34.04 244.03 34.04 244.03 34.03 244.03C32.41 243.44 30.85 241.92 30.01 240.28C29.62 239.51 29.38 238.71 29.38 237.98C29.38 235.07 28.57 217.9 28.57 212.9C28.57 207.9 29.62 199.15 32.06 195.91C33.54 193.95 34.87 192.94 35.68 192.45C37.62 190.81 39.91 189.63 41.84 189C44.51 188.14 50.46 185.91 54.6 184.35V184.39C52.76 185.1 50.54 185.97 48.34 186.81C49.93 189.53 53.37 193.84 59.48 194.36C65.26 194.85 68.84 189.62 70.67 185.8C70.83 185.86 80.89 183.95 83.23 184.05C90.81 184.39 97.01 180.27 99.81 178.64C103.44 176.53 108.17 178.24 109.38 182.27C109.39 182.3 109.4 182.33 109.4 182.35C109.77 183.45 110.09 184.66 109.61 185.69Z" fill="#FA976D" stroke="#4B1D0A" stroke-linecap="round" stroke-linejoin="round"/>
<path d="M70.73 185.79C70.73 185.8 70.72 185.8 70.72 185.8C70.57 185.74 70.42 185.69 70.27 185.64L70.73 185.79Z" fill="white" stroke="#4B1D0A" stroke-linecap="round" stroke-linejoin="round"/>
<path d="M79.26 249.89C79.26 249.93 79.25 249.97 79.24 250.01C79.14 250.4 78.6 250.55 78.18 250.31C77.73 250.05 77.01 248.38 77.01 248.38L76.22 247.56L75.71 247C75.71 247.01 75.71 247.01 75.72 247.01C75.8 247.2 76.42 248.74 76.1 249.44C76.08 249.49 76.06 249.53 76.02 249.57C75.91 249.72 75.78 249.85 75.64 249.97C75.22 250.32 74.68 250.52 74.12 250.52H74.09C73.66 250.5 72.4 250.67 71.3 250.74C71.26 250.74 71.23 250.74 71.19 250.75H71.18C70.8 250.77 70.44 250.78 70.15 250.76C69.26 250.64 68.41 250.36 67.63 249.91C67.63 249.91 64.05 249.36 62.46 248.68C62.35 248.64 62.26 248.59 62.16 248.53C62.07 248.47 61.97 248.42 61.89 248.36C61.71 248.25 61.55 248.12 61.4 247.98C60.59 247.27 60.08 246.38 59.96 246.13C59.94 246.1 59.94 246.09 59.94 246.09V246.08C59.94 246.08 55.88 245.91 50.43 245.49C48.44 245.34 46.27 245.15 44.04 244.93C40.59 244.58 37.75 244.6 35.52 244.29C35.46 244.28 35.41 244.27 35.36 244.26C34.92 244.19 34.51 244.12 34.12 244.02C34.11 244.01 34.11 244.01 34.1 244.01C32.14 243.5 30.79 242.49 30.08 240.26C29.95 239.86 29.85 239.41 29.76 238.92L31.49 235.91C31.49 235.91 32.68 234.89 34.52 234.17C35.97 233.59 37.83 233.22 39.83 233.68C40.19 233.76 40.55 233.87 40.92 234.01C41.7 234.31 42.55 234.66 43.45 235.04C43.63 235.11 43.82 235.19 44 235.27C44.18 235.35 44.37 235.42 44.56 235.51C44.82 235.62 45.08 235.73 45.35 235.85C49.87 237.79 55.13 240.14 58.69 241.12C59.71 241.4 60.81 241.58 61.94 241.7C62.27 241.74 62.6 241.77 62.94 241.78C66.79 242.03 70.59 241.58 71.61 241.64C72.7 241.71 75.09 244.04 76.66 245.5C77.09 245.9 77.47 246.23 77.73 246.43C77.77 246.46 77.81 246.49 77.85 246.53C77.88 246.55 77.91 246.57 77.94 246.61C78.55 247.17 78.91 248.03 79.1 248.73C79.1 248.73 79.11 248.73 79.1 248.74C79.18 249.06 79.23 249.34 79.26 249.56C79.26 249.7 79.26 249.81 79.26 249.89Z" fill="white" stroke="#4B1D0A" stroke-linecap="round" stroke-linejoin="round"/>
<path d="M79.26 249.89C79.26 249.93 79.25 249.97 79.24 250.01C79.12 250.39 78.59 250.55 78.18 250.3C77.73 250.03 77.01 248.37 77.01 248.37L76.22 247.56L75.7 247.02L75.69 247.01C75.76 247.17 76.4 248.73 76.08 249.45C76.06 249.5 76.04 249.54 76 249.58C75.89 249.73 75.76 249.86 75.62 249.98C75.19 250.32 74.66 250.52 74.1 250.52C74.09 250.52 74.09 250.52 74.09 250.52H74.06C73.62 250.5 72.37 250.66 71.28 250.74C71.23 250.74 71.19 250.75 71.15 250.75C70.77 250.77 70.41 250.78 70.12 250.76C69.23 250.64 68.38 250.36 67.6 249.91C67.6 249.91 64.02 249.35 62.43 248.68C62.33 248.64 62.23 248.59 62.14 248.54C62.05 248.48 61.95 248.43 61.87 248.37C61.69 248.25 61.53 248.13 61.38 247.99C60.57 247.28 60.06 246.39 59.94 246.14C59.93 246.12 59.92 246.11 59.92 246.1V246.09C59.91 246.08 59.91 246.07 59.91 246.07C59.91 246.07 55.97 245.9 50.64 245.49C48.59 245.34 46.33 245.14 44.01 244.91C40.85 244.59 38.23 244.51 36.13 244.18C35.91 244.14 35.69 244.1 35.48 244.06C35.22 244 34.97 243.95 34.73 243.89C34.6 242.86 34.61 241.54 35.11 240.25C35.7 238.68 37 237.14 39.6 236.15C39.61 236.15 39.62 236.14 39.63 236.14C40.88 235.68 42.16 235.31 43.46 235.04C43.47 235.03 43.47 235.03 43.47 235.03C43.65 235.11 43.83 235.18 44.01 235.26C44.19 235.34 44.38 235.41 44.57 235.5C44.83 235.61 45.09 235.72 45.36 235.84C49.89 237.79 55.14 240.15 58.7 241.12C59.72 241.4 60.83 241.58 61.95 241.69C62.28 241.73 62.61 241.76 62.95 241.77C66.8 242.03 70.6 241.58 71.61 241.63C72.7 241.69 75.08 244.03 76.65 245.48C77.09 245.88 77.47 246.22 77.74 246.42C77.78 246.45 77.82 246.48 77.86 246.51C77.89 246.53 77.92 246.55 77.95 246.59C78.56 247.14 78.92 248 79.11 248.71C79.11 248.71 79.12 248.71 79.11 248.72C79.2 249.03 79.25 249.32 79.27 249.54C79.26 249.7 79.26 249.81 79.26 249.89Z" fill="white" stroke="#4B1D0A" stroke-linecap="round" stroke-linejoin="round"/>
<path d="M67.29 247.23C67.29 247.23 69.55 248.41 70.46 248.81C71.37 249.21 71.28 250.87 71.28 250.87" fill="white"/>
<path d="M67.29 247.23C67.29 247.23 69.55 248.41 70.46 248.81C71.37 249.21 71.28 250.87 71.28 250.87" stroke="#4B1D0A" stroke-linecap="round" stroke-linejoin="round"/>
<path d="M69.71 245.62C69.71 245.62 73.18 248.15 73.83 248.89C74.22 249.35 74.32 249.99 74.08 250.55" fill="white"/>
<path d="M69.71 245.62C69.71 245.62 73.18 248.15 73.83 248.89C74.22 249.35 74.32 249.99 74.08 250.55" stroke="#4B1D0A" stroke-linecap="round" stroke-linejoin="round"/>
<path d="M75.7 246.99C75.7 246.99 72.38 243.54 71.95 243.39Z" fill="white"/>
<path d="M75.7 246.99C75.7 246.99 72.38 243.54 71.95 243.39" stroke="#4B1D0A" stroke-linecap="round" stroke-linejoin="round"/>
<path d="M70.72 185.81C68.9 189.62 65.32 194.85 59.54 194.36C53.42 193.84 49.98 189.53 48.39 186.8C50.59 185.96 52.81 185.1 54.65 184.38V184.34C54.65 182.48 54.59 180.25 54.39 178.04C54.35 177.56 54.29 177.07 54.23 176.59C54.18 176.21 54.13 175.82 54.06 175.45H65.7C65.7 175.45 65.63 175.92 65.54 176.69C65.54 176.7 65.54 176.71 65.53 176.72C65.46 177.41 65.36 178.33 65.3 179.37C65.21 180.75 65.14 182.33 65.19 183.9C65.75 184.1 66.32 184.3 66.89 184.52C67.25 184.64 67.62 184.78 67.99 184.9C68.43 185.06 68.86 185.2 69.32 185.35L70.27 185.65C70.43 185.69 70.57 185.75 70.72 185.81Z" fill="white" stroke="#4B1D0A" stroke-linecap="round" stroke-linejoin="round"/>
<path d="M54.23 176.59C54.23 176.59 56.4 182.23 59.55 183.19C62.7 184.16 65.53 176.71 65.53 176.71C65.53 176.71 61.09 181.46 59.44 180.67C57.8 179.9 54.23 176.59 54.23 176.59Z" fill="#4B1D0A"/>
<path d="M52.37 145.45C49.33 147.96 47.24 151.42 45.54 154.98C44.11 157.98 42.9 161.43 44 164.57C44.56 166.16 45.67 167.5 46.75 168.79C48.91 171.38 51.94 178.61 54.1 181.2C54.24 176.59 50.38 169.14 50.79 165.27C51.11 162.26 52.41 159.46 53.69 156.72C55.3 153.29 56.93 149.81 59.35 146.9C60.66 145.32 64.87 142.51 60.62 142.17C57.76 141.93 54.5 143.69 52.37 145.45Z" fill="#4B1D0A" stroke="#4B1D0A" stroke-linecap="round" stroke-linejoin="round"/>
<path d="M49.65 161.14C49.65 161.14 48.15 158.26 46.59 161C45.46 162.98 47.09 166.15 47.79 167.31C48.25 168.01 49.05 168.41 49.89 168.36L49.65 161.14Z" fill="white" stroke="#4B1D0A" stroke-linecap="round" stroke-linejoin="round"/>
<path d="M69.23 171.61C68.95 172.5 67.4 174.7 65.54 176.72C65.25 177.04 64.95 177.35 64.64 177.65C62.78 179.49 60.77 180.95 59.45 180.68C58.3 180.45 56.8 179.27 55.33 177.76C54.96 177.39 54.6 176.99 54.24 176.59V176.58C52.39 174.48 50.74 172.1 50.15 170.79C49.88 170.2 49.7 169.34 49.56 168.34C49.25 165.99 49.27 162.89 49.3 160.79C49.32 159.9 49.33 159.2 49.33 158.8C49.33 157.05 55.84 151 55.84 151C55.98 150.94 56.17 150.92 56.39 150.94C57.11 151 58.27 151.43 59.59 152.08C63.54 154 69.05 157.81 69.45 159.26C70.04 161.36 69.81 169.72 69.23 171.61Z" fill="white" stroke="#4B1D0A" stroke-linecap="round" stroke-linejoin="round"/>
<path d="M56.28 163.58C56.28 164.28 56.02 164.86 55.73 164.86C55.44 164.86 55.15 164.31 55.15 163.58C55.15 162.85 55.41 162.3 55.73 162.3C56.05 162.29 56.28 162.88 56.28 163.58Z" fill="#4B1D0A"/>
<path d="M63.73 162.3C64.05 162.3 64.31 162.87 64.31 163.58C64.31 164.29 64.05 164.86 63.73 164.86C63.41 164.86 63.15 164.29 63.15 163.58C63.15 162.87 63.41 162.3 63.73 162.3Z" fill="#4B1D0A"/>
<path d="M52.55 160.43C52.55 160.43 53.6 158.45 57.09 159.04" stroke="#4B1D0A" stroke-linecap="round" stroke-linejoin="round"/>
<path d="M67.02 160.43C67.02 160.43 65.97 158.45 62.48 159.04" stroke="#4B1D0A" stroke-linecap="round" stroke-linejoin="round"/>
<path d="M60.47 168.47C61.25 168.38 61.89 167.84 62 167.18C62 167.18 60.05 164.16 60.64 161.24" stroke="#4B1D0A" stroke-linecap="round" stroke-linejoin="round"/>
<path d="M48.38 154.2C47.58 155.29 46.97 156.52 46.59 157.82" stroke="white" stroke-linecap="round" stroke-linejoin="round"/>
<path d="M56.75 146.2C56.75 146.2 55.64 148.05 50.77 151.79C50.46 152.02 50.16 152.27 49.87 152.53" stroke="white" stroke-linecap="round" stroke-linejoin="round"/>
<path d="M41.07 204.79C40.42 214.31 39.76 223.82 39.11 233.33C39.11 233.09 39.12 232.84 39.12 232.6" fill="#4B1D0A"/>
<path d="M41.07 204.79C40.42 214.31 39.76 223.82 39.11 233.33C39.11 233.09 39.12 232.84 39.12 232.6" stroke="#4B1D0A" stroke-linecap="round" stroke-linejoin="round"/>
<path d="M104.24 173.4C106.02 172.63 108.16 172.97 109.77 174.04C111.38 175.11 112.49 176.84 113.06 178.69C113.64 180.56 113.69 182.65 112.88 184.43C112.07 186.21 110.3 187.61 108.35 187.68C106.91 187.73 105.53 187.09 104.37 186.23C100.61 183.43 98.73 175.78 104.24 173.4Z" fill="white" stroke="#4B1D0A" stroke-linecap="round" stroke-linejoin="round"/>
<path d="M112.52 141.47C112.52 141.58 112.55 142.38 112.58 142.52C112.93 144.06 113.67 147.91 111.8 148.69C112.51 151.23 114.25 167.76 114.02 176.19C113.96 178.7 113.52 181.7 111.26 182.78C107.45 184.59 103.83 180.17 104.31 176.73C104.97 172.02 104.75 167.22 105.33 162.46C105.94 157.52 107.06 152.43 105.83 147.63C105.53 147.31 103.61 143.5 102.99 142.44C102.72 141.98 102.46 141.52 102.33 141.01C102.05 139.93 101.97 136.48 101.97 135.8C102.54 134.72 103.28 135.72 103.67 136.42C103.95 136.93 104.05 137.97 103.99 139.14C103.98 139.37 103.96 139.61 104.08 139.79C104.24 140.02 104.55 140.17 104.83 140.13C106.05 139.95 106 138.92 105.99 138.15C105.99 135.5 105.98 132.86 105.98 130.22C105.98 129.78 106.11 128.59 106.54 128.55C107.01 128.51 107.59 128.85 107.65 130.27C107.72 131.86 107.72 136.75 107.72 136.75C107.8 136.82 107.93 136.88 108.03 136.84C108.13 136.79 108.18 136.66 108.21 136.56C108.8 134.1 109.4 131.64 110 129.18C110.07 128.89 110.5 128.29 110.81 128.29C111.55 128.29 111.57 129.15 111.61 129.4C111.87 130.72 110.02 136.15 109.71 137.41C109.66 137.63 109.73 137.96 109.94 137.9L112.84 132.05C113.09 131.43 113.75 130.72 114.41 130.63C114.46 130.62 114.51 130.62 114.56 130.64C114.61 130.66 114.65 130.71 114.68 130.76C114.96 131.26 114.68 131.95 114.51 132.5C114.34 133.04 112.18 137.09 111.42 138.72C111.31 138.95 111.13 139.47 111.35 139.68C111.67 139.81 111.97 139.45 112.13 139.13C112.62 138.16 113.09 137.19 113.53 136.2C113.67 135.91 113.88 135.51 114.2 135.58C116.09 135.99 113.32 140.08 112.52 141.47Z" fill="white" stroke="#4B1D0A" stroke-linecap="round" stroke-linejoin="round"/>
<path d="M107.14 140.61C108.11 141.45 109.07 142.33 109.73 143.43C110.39 144.53 110.71 145.89 110.33 147.11C110.28 147.27 110.22 147.43 110.14 147.58" fill="white"/>
<path d="M107.14 140.61C108.11 141.45 109.07 142.33 109.73 143.43C110.39 144.53 110.71 145.89 110.33 147.11C110.28 147.27 110.22 147.43 110.14 147.58" stroke="#4B1D0A" stroke-linecap="round" stroke-linejoin="round"/>
<path d="M78.97 203.09C80.1 205.56 80.81 207.65 81.08 209.87C81.37 212.23 81.46 214.08 79.85 220.71" stroke="#4B1D0A" stroke-linecap="round" stroke-linejoin="round"/>
<path d="M56.4 149.5C56.28 149.91 56.2 150.35 56.3 150.77C56.44 151.31 56.87 151.73 57.29 152.1C60.48 154.9 64.07 157.25 67.92 159.04C68.36 159.25 68.84 159.47 69.1 159.88C69.37 160.29 69.38 160.81 69.38 161.3C69.39 163.87 69.41 166.45 69.42 169.02C69.42 169.82 69.43 170.63 69.19 171.39C68.63 173.19 67.39 174.65 66.49 176.3C65.59 177.95 65.09 179.62 65.15 181.5C64.9 179.59 71.59 175.88 73.39 168.36C73.64 167.31 78.85 161 75.73 153.59C72.73 146.48 68.01 143.42 66.42 143.05C63.97 142.49 62.09 142.79 60.07 144.27C58.31 145.55 56.98 147.41 56.4 149.5Z" fill="#4B1D0A" stroke="#4B1D0A" stroke-linecap="round" stroke-linejoin="round"/>
<path d="M62.95 171.12C62.37 171.24 61.8 171.35 61.21 171.42C59.26 171.67 57.07 171.36 55.77 169.9C55.87 171.21 56.79 176.16 59.45 176.29C62.25 176.43 62.95 171.12 62.95 171.12Z" stroke="#4B1D0A" stroke-linecap="round" stroke-linejoin="round"/>
<path d="M60.35 146.47C61.49 149.08 63.35 151.36 65.67 153.01C67.36 154.21 69.29 155.09 70.84 156.47C72.88 158.29 74.15 161.2 73.38 163.83" stroke="white" stroke-linecap="round" stroke-linejoin="round"/>
<path d="M81.25 186.87C81.25 186.87 78.36 188.89 77.7 193.08C77.37 195.18 77.61 197.39 78.46 199.34" stroke="#4B1D0A" stroke-linecap="round" stroke-linejoin="round"/>
<path d="M44 203.37C43.84 205.99 42.21 208.26 40.63 210.36Z" fill="#4B1D0A"/>
<path d="M44 203.37C43.84 205.99 42.21 208.26 40.63 210.36" stroke="#4B1D0A" stroke-linecap="round" stroke-linejoin="round"/>
<path d="M40.1 223.4C41.7 226.09 44.37 227.98 47.44 228.6" stroke="#4B1D0A" stroke-linecap="round" stroke-linejoin="round"/>
<path d="M78.36 224.96C78.36 224.96 75.67 228.99 66.53 229.8" stroke="#4B1D0A" stroke-linecap="round" stroke-linejoin="round"/>
<path d="M346.11 189.91C346.11 189.91 311.26 200.71 304.7 192.18L305.58 148.67H310.88L317.1 179.32L345.66 174.1C345.66 174.1 349.32 185.44 346.11 189.91Z" fill="white"/>
<path d="M331.42 191.43C329.48 192.37 327.43 193.15 325.74 194.48C328.1 195.22 330.62 194.27 332.97 193.52C336.08 192.53 339.28 191.87 342.48 191.29C342.63 190.4 341.49 188.37 341.03 187.58C340.21 186.2 340.06 186.08 338.65 186.76C336.14 187.97 334.01 190.18 331.42 191.43Z" fill="#FA976D"/>
<path d="M346.11 189.91C346.11 189.91 311.26 200.71 304.7 192.18L305.58 148.67H310.88L317.1 179.32L345.66 174.1C345.66 174.1 349.32 185.44 346.11 189.91Z" stroke="#4B1D0A" stroke-miterlimit="10" stroke-linecap="round" stroke-linejoin="round"/>
<path d="M342.69 191.05L348.82 228.73C348.65 253.16 360.3 249.48 368.39 249.41C377.74 249.33 391.93 240.06 384.97 225.63L387.65 173.4L371.35 172.14C365.97 171.73 343.98 172.42 342.23 175.22C337.7 182.53 342.69 191.05 342.69 191.05Z" fill="white"/>
<path d="M343.65 194.2C347.18 207.81 356.1 219.95 368.04 227.39C366.73 227.29 365.5 226.72 364.26 226.29C363.02 225.86 361.62 225.59 360.4 226.09C359.18 226.58 358.3 228.1 358.91 229.27C359.16 229.76 359.62 230.1 360.06 230.42C362.04 231.82 364.22 232.93 366.51 233.72C364.5 233.51 362.46 233.67 360.51 234.19C360.15 235.92 362.09 237.14 363.61 238.04C366.04 239.47 368.15 241.45 369.73 243.79C364.36 243.8 359 244.11 353.66 244.71C352.95 244.79 352.18 244.87 351.55 244.51C350.81 244.09 350.49 243.2 350.26 242.37C349.07 238.21 348.38 233.92 348.2 229.6C348.1 227.17 348.16 224.73 347.88 222.31C347.66 220.41 347.23 218.53 346.83 216.66C345.28 209.46 344.08 202.18 343.26 194.86C342.88 194.83 343.65 194.2 343.65 194.2Z" fill="#FA976D"/>
<path d="M384.96 191.15C384.15 190.89 382.49 190.22 381.24 189.15C381.55 190.65 383.79 193.24 385.1 194.04C385.38 194.21 385.77 194.35 386 194.12C386.2 193.92 386.4 193.3 386.64 193.15L384.96 191.15Z" fill="#FA976D"/>
<path d="M342.69 191.05L348.82 228.73C348.65 253.16 360.3 249.48 368.39 249.41C377.74 249.33 391.93 240.06 384.97 225.63L387.65 173.4L371.35 172.14C365.97 171.73 343.98 172.42 342.23 175.22C337.7 182.53 342.69 191.05 342.69 191.05Z" stroke="#4B1D0A" stroke-miterlimit="10" stroke-linecap="round" stroke-linejoin="round"/>
<path d="M354.6 171.39C352.85 174.58 352 178.25 352.16 181.89C352.17 182.21 352.2 182.54 352.34 182.82C352.79 183.71 354.02 183.71 355 183.83C358.85 184.32 361.24 188.38 364.88 189.74C365.16 189.85 365.47 189.94 365.77 189.85C366.04 189.77 366.25 189.55 366.43 189.33C368.01 187.38 368.57 184.53 370.73 183.24C371.67 182.68 372.87 182.45 373.51 181.56C374.25 180.54 373.92 179.12 373.56 177.91C372.97 175.92 372.31 173.83 370.78 172.43C369.26 171.05 367.13 170.59 365.08 170.42C362.07 170.17 359.01 170.46 356.09 171.26C356.12 171.65 354.6 171.39 354.6 171.39Z" fill="#FA976D" stroke="#4B1D0A" stroke-linecap="round" stroke-linejoin="round"/>
<path d="M402.99 196.96C400.55 193.42 398.74 189.44 397.68 185.26C397.15 183.2 396.8 181.06 395.85 179.15C394.34 176.1 391.31 173.86 387.96 173.3C387.24 173.18 386.48 173.14 385.8 173.4C384.35 173.95 383.72 175.62 383.42 177.14C382.79 180.39 382.98 183.79 383.96 186.95C384.63 189.1 392.68 204.77 398.02 210.84C397.51 207.78 401.03 197.56 402.99 196.96Z" fill="white"/>
<path d="M387.21 193.89C388.86 197 390.5 200.1 392.15 203.21C392.85 204.54 393.66 205.96 395.04 206.54C394.17 203.47 393.68 200.29 393.57 197.09C393.51 195.49 393.55 193.85 393.02 192.33C392.82 192.5 392.6 191.78 392.6 191.78C392.39 192.19 391.8 192.2 391.35 192.11C388.12 191.44 385.91 188.55 383.99 185.87C383.47 187.65 383.84 189.67 384.96 191.14C384.96 191.15 387.05 193.58 387.21 193.89Z" fill="#FA976D"/>
<path d="M402.99 196.96C400.55 193.42 398.74 189.44 397.68 185.26C397.15 183.2 396.8 181.06 395.85 179.15C394.34 176.1 391.31 173.86 387.96 173.3C387.24 173.18 386.48 173.14 385.8 173.4C384.35 173.95 383.72 175.62 383.42 177.14C382.79 180.39 382.98 183.79 383.96 186.95C384.63 189.1 392.68 204.77 398.02 210.84C397.51 207.78 401.03 197.56 402.99 196.96Z" stroke="#4B1D0A" stroke-miterlimit="10" stroke-linecap="round" stroke-linejoin="round"/>
<path d="M396.06 208.16C390.68 197.85 393.28 174.09 393.11 170.27L400.21 169.89C400.92 169.89 404.2 190.15 406.45 198.56C408.5 206.22 406.54 213.97 402.99 213.97C400.06 213.97 397.19 210.33 396.06 208.16Z" fill="white" stroke="#4B1D0A" stroke-miterlimit="10" stroke-linecap="round" stroke-linejoin="round"/>
<path d="M331.94 181.4C336.96 174.1 346.75 173.52 346.75 173.52" stroke="#4B1D0A" stroke-miterlimit="10" stroke-linecap="round" stroke-linejoin="round"/>
<path d="M312.66 185.48C314.39 184.04 315.7 181.61 316.12 180.49Z" fill="white"/>
<path d="M312.66 185.48C314.39 184.04 315.7 181.61 316.12 180.49" stroke="#4B1D0A" stroke-miterlimit="10" stroke-linecap="round" stroke-linejoin="round"/>
<path d="M349.8 219.98C352.66 224.64 371.11 229.64 378.47 228.57" stroke="#4B1D0A" stroke-miterlimit="10" stroke-linecap="round" stroke-linejoin="round"/>
<path d="M355.03 233.11C360.34 234.03 365.84 233.82 371.06 232.5" stroke="#4B1D0A" stroke-miterlimit="10" stroke-linecap="round" stroke-linejoin="round"/>
<path d="M379.52 187.86C380.69 189.45 381.86 191.04 383.03 192.63C383.51 193.28 384.18 194.01 384.97 193.83" stroke="#4B1D0A" stroke-miterlimit="10" stroke-linecap="round" stroke-linejoin="round"/>
<path d="M405.68 368.79C405.37 370.07 405.27 371.58 406.18 372.53C407.03 373.42 408.41 373.46 409.64 373.44C411.05 373.41 412.46 373.39 413.87 373.36C415.5 373.33 417.19 373.29 418.67 372.61C420.15 371.93 421.38 370.42 421.22 368.8C421.15 368.16 420.88 367.57 420.62 366.98C420.24 366.16 419.87 365.33 419.49 364.51C414.78 354.21 407.68 360.47 405.68 368.79Z" fill="white" stroke="#4B1D0A" stroke-miterlimit="10" stroke-linecap="round" stroke-linejoin="round"/>
<path d="M399.72 356.66C399.87 361.38 399.47 366.11 398.54 370.74C398.33 371.79 398.52 373.38 399.59 373.28C399.97 373.25 400.27 372.97 400.54 372.71C404.2 369.11 406.86 364.51 408.15 359.54C408.43 358.47 408.62 357.25 408.04 356.31C407.78 355.89 407.39 355.57 407 355.26C403.65 352.54 399.41 349.86 399.72 356.66Z" fill="white" stroke="#4B1D0A" stroke-miterlimit="10" stroke-linecap="round" stroke-linejoin="round"/>
<path d="M388.11 235.79C388.11 235.79 393.37 244.95 394.5 247.09C395.63 249.22 419.54 280.59 424.08 303.43C424.94 307.77 407.33 356.31 407.33 356.31L403.35 354.04C403.35 354.04 406.13 309.77 405.45 306.09C404.78 302.42 387.2 275.25 387.2 275.25C387.2 275.25 377.38 268.03 373.35 259.66L388.11 235.79Z" fill="#4B1D0A"/>
<path d="M388.68 258.74C388.68 258.74 385.64 265.42 385.63 266.38C385.62 267.34 402.14 319.48 406.98 331.54C410.06 339.31 412.77 347.26 415.09 355.37C415.09 355.37 416.97 357.84 415.55 360.36C414.13 362.88 408.49 364.54 407.32 362.28C406.16 360.02 394.73 348.28 389.91 336.6C385.12 324.99 378.34 305.43 374.49 298.13C369.43 288.82 364.94 279.23 361.06 269.42C356.2 257.01 351.25 243.64 351.25 243.64C353.27 243.82 355.29 243.87 357.31 243.8C362.05 243.64 366.76 242.81 371.32 241.32C381.86 237.78 386.42 231.01 386.42 231.01C386.42 231.01 389.03 238.07 389.7 239.44L388.68 258.74Z" fill="#4B1D0A"/>
<path d="M422.33 307.89C421.3 309.65 419.91 311.21 418.25 312.4" stroke="white" stroke-miterlimit="10" stroke-linecap="round" stroke-linejoin="round"/>
<path d="M423.62 304.98C423.47 305.47 423.29 305.94 423.08 306.41" stroke="white" stroke-miterlimit="10" stroke-linecap="round" stroke-linejoin="round"/>
<path d="M379.15 243.15C381.81 247.73 384.3 254.32 383.9 259.61C383.84 260.45 382.87 262.36 382.87 262.36" stroke="white" stroke-miterlimit="10" stroke-linecap="round" stroke-linejoin="round"/>
<path d="M363.04 248.25C363.33 250.8 363.72 255.04 363.17 257.54C362.61 260.05 361.26 262.47 359.08 263.84" stroke="white" stroke-miterlimit="10" stroke-linecap="round" stroke-linejoin="round"/>
<path d="M385.73 238.6C386.4 239.25 386.67 240.18 387.12 240.99C388.56 243.58 391.34 245.6 393.64 245.93" stroke="white" stroke-miterlimit="10" stroke-linecap="round" stroke-linejoin="round"/>
<path d="M377.24 248.82C380.77 256.54 383.47 264.28 388.95 277.4" stroke="white" stroke-miterlimit="10" stroke-linecap="round" stroke-linejoin="round"/>
<path d="M375.36 244.87C375.66 245.47 375.95 246.07 376.24 246.67" stroke="white" stroke-miterlimit="10" stroke-linecap="round" stroke-linejoin="round"/>
<path d="M404.74 303.93C406.35 307.05 408.42 309.93 410.85 312.46" stroke="white" stroke-miterlimit="10" stroke-linecap="round" stroke-linejoin="round"/>
<path d="M406.41 306.81C407.46 311.69 409.41 316.37 412.11 320.56" stroke="white" stroke-miterlimit="10" stroke-linecap="round" stroke-linejoin="round"/>
<path d="M381.54 307.06C373.75 290.44 365.44 273.95 355.23 248.82" stroke="white" stroke-miterlimit="10" stroke-linecap="round" stroke-linejoin="round"/>
<path d="M383.31 311.9C383.12 311.32 382.92 310.73 382.71 310.15" stroke="white" stroke-miterlimit="10" stroke-linecap="round" stroke-linejoin="round"/>
<path d="M410.23 362.99C408.24 360.38 393.65 340.02 390.03 330.75C387.62 324.59 385.8 320.24 383.99 314.1" stroke="white" stroke-miterlimit="10" stroke-linecap="round" stroke-linejoin="round"/>
<path d="M404.74 323.75L411.67 344.12" stroke="white" stroke-miterlimit="10" stroke-linecap="round" stroke-linejoin="round"/>
<path d="M400.07 169.9L397.96 170.08C396.37 170.21 394.47 170.8 389.98 169.71C388.31 169.3 384.44 168.1 383.99 168.02C383.08 167.84 381.43 167.53 380.5 167.47C376.98 167.25 378.76 165.94 380.23 166C382.17 166.09 382.82 166.04 384.31 166.16C384.14 166.06 383.58 165.95 383.58 165.52C383.56 164.47 384.96 164.54 384.96 164.54C384.96 164.54 383.45 163.9 383.66 163.1C383.85 162.4 384.88 162.11 385.53 162.16C385.53 162.16 384.68 161.76 384.72 161.31C384.89 159.61 388.39 159.49 388.39 159.49C387.39 158.9 386.69 158.7 386.04 158.04C385.78 157.78 385.59 157.42 385.51 157.06C385.32 156.22 386.2 155.59 386.95 156.01C387.88 156.52 388.67 157.33 389.55 157.96C390.63 158.72 391.88 159.22 393.02 159.91C393.51 160.21 395.09 161.98 395.65 163.36C395.82 163.63 400.07 169.9 400.07 169.9Z" fill="white" stroke="#4B1D0A" stroke-miterlimit="10" stroke-linecap="round" stroke-linejoin="round"/>
<path d="M305.58 148.67V143.12C305.58 140.36 305.96 137.6 306.79 134.97C307.25 133.51 307.78 132.23 308.28 132.05C309.19 131.72 309.59 135.41 309.59 135.41C309.59 135.41 308.28 129.65 308.28 126.44C308.28 123.23 312.6 136.56 312.6 136.56L310.88 148.68H305.58V148.67Z" fill="white" stroke="#4B1D0A" stroke-miterlimit="10" stroke-linecap="round" stroke-linejoin="round"/>
<path d="M310.83 139.71C311.35 139.31 311.75 138.76 311.95 138.13Z" fill="white"/>
<path d="M310.83 139.71C311.35 139.31 311.75 138.76 311.95 138.13" stroke="#4B1D0A" stroke-miterlimit="10" stroke-linecap="round" stroke-linejoin="round"/>
<path d="M352.69 160.17C354.57 163.31 355.62 166.88 355.73 170.54C355.91 176.62 362.95 185.14 364.96 185.54C366.97 185.94 368.83 175.95 368.74 172.91C368.65 169.87 367.53 161.51 367.53 161.51C367.53 161.51 357.86 154.22 352.69 160.17Z" fill="white" stroke="#4B1D0A" stroke-miterlimit="10" stroke-linecap="round" stroke-linejoin="round"/>
<path d="M355.52 168.21C355.52 168.21 364.75 180.81 368.37 168C371.99 155.19 358.22 171.5 355.52 168.21Z" fill="#4B1D0A"/>
<path d="M371.1 159.12C370.61 166.59 367.2 170.79 363.27 171.53C359.68 172.2 354.43 168.52 351.81 163.1C351.81 163.1 351.81 163.1 351.8 163.09C351.6 162.96 348.41 160.74 347.65 160.2C346.86 159.64 346.33 158.7 346.38 157.73C346.43 156.81 347.07 155.91 347.95 155.65C347.98 155.64 348.02 155.63 348.05 155.62C348.51 155.51 348.96 155.57 349.4 155.72C348.73 153.16 348.19 150.58 347.79 147.97C347.98 141.94 349.97 137.07 356.37 136.58C362.78 136.09 368.12 139.68 368.36 142.26C368.55 144.26 369.19 149.55 369.78 155.02C369.94 156.54 371.2 157.48 371.1 159.12Z" fill="white" stroke="#4B1D0A" stroke-miterlimit="10" stroke-linecap="round" stroke-linejoin="round"/>
<path d="M368.37 150.52C368.37 150.52 364.25 148.63 364.95 154.77C365.09 155.98 367.35 157.82 367.35 157.82C367.35 157.82 366.77 159.63 365.7 159.63" fill="white"/>
<path d="M368.37 150.52C368.37 150.52 364.25 148.63 364.95 154.77C365.09 155.98 367.35 157.82 367.35 157.82C367.35 157.82 366.77 159.63 365.7 159.63" stroke="#4B1D0A" stroke-miterlimit="10" stroke-linecap="round" stroke-linejoin="round"/>
<path d="M360.41 152.62C360.41 152.62 358.31 151.34 356.87 152.13C356.12 152.46 355.48 153 355.03 153.69" fill="white"/>
<path d="M360.41 152.62C360.41 152.62 358.31 151.34 356.87 152.13C356.12 152.46 355.48 153 355.03 153.69" stroke="#4B1D0A" stroke-miterlimit="10" stroke-linecap="round" stroke-linejoin="round"/>
<path d="M359.21 156.13C359.37 156.87 359.17 157.54 358.78 157.62C358.38 157.7 357.94 157.18 357.78 156.43C357.62 155.69 357.82 155.03 358.22 154.94C358.62 154.86 359.06 155.41 359.21 156.13Z" fill="#4B1D0A"/>
<path d="M367.33 154.01C367.49 154.75 367.29 155.41 366.9 155.5C366.51 155.59 366.05 155.05 365.9 154.31C365.75 153.58 365.94 152.9 366.33 152.82C366.73 152.74 367.17 153.27 367.33 154.01Z" fill="#4B1D0A"/>
<path d="M347.31 140.31C346.54 140.97 346.13 141.96 345.85 142.94C344.63 147.15 345.2 151.85 347.38 155.65C347.38 155.65 348.49 155.51 349.39 155.74C350.09 155.92 350.99 157.11 351.32 157.75C351.65 158.39 351.73 159.12 351.81 159.84C351.65 157.95 351.5 156.05 351.34 154.16C351.28 153.4 351.22 152.61 351.44 151.88C351.44 151.87 351.44 151.87 351.45 151.86C351.94 150.3 351.4 146.62 351.54 143.33C355.69 148.41 361.72 147.51 363.72 147.34C366.72 147.09 369.28 144.02 369.11 141.83C368.94 139.6 368.36 134 358.47 133.42C356.3 133.29 354.01 133.55 352.19 134.73C350.96 135.53 350.17 136.83 349.94 138.27C349.8 139.19 350.15 139.27 349.45 139.72C348.88 140.08 347.99 139.72 347.31 140.31Z" fill="#4B1D0A" stroke="#4B1D0A" stroke-miterlimit="10" stroke-linecap="round" stroke-linejoin="round"/>
<path d="M360.41 163.11C360.41 163.11 361.88 164.72 364.95 163.66Z" fill="white"/>
<path d="M360.41 163.11C360.41 163.11 361.88 164.72 364.95 163.66" stroke="#4B1D0A" stroke-miterlimit="10" stroke-linecap="round" stroke-linejoin="round"/>
</g>
<defs>
<clipPath id="clip0">
<rect width="431.05" height="373.93" fill="white"/>
</clipPath>
</defs>
</svg>
